<?xml version="1.0" encoding="UTF-8" standalone="no"?>
<!DOCTYPE svg PUBLIC "-//W3C//DTD SVG 1.1//EN" "http://www.w3.org/Graphics/SVG/1.1/DTD/svg11.dtd">
<svg width="100%" height="100%" viewBox="0 0 1482 329" version="1.1" xmlns="http://www.w3.org/2000/svg" xmlns:xlink="http://www.w3.org/1999/xlink" xml:space="preserve" xmlns:serif="http://www.serif.com/" style="fill-rule:evenodd;clip-rule:evenodd;stroke-linejoin:round;stroke-miterlimit:2;">
    <g transform="matrix(1,0,0,1,-1093.405448,-1075.975849)">
        <g id="NICOLETTE" transform="matrix(8.041311,0,0,8.041311,-8031.26523,-9447.811378)">
            <g id="NIC">
                <path id="N" d="M1148.705,1327.107L1148.705,1310.296L1155.878,1310.296L1155.878,1347.969L1149.316,1347.969L1143.178,1331.128L1143.178,1347.969L1136.005,1347.969L1136.005,1310.296L1142.671,1310.296L1148.705,1327.107ZM1137.042,1346.933L1142.142,1346.933L1142.142,1325.533L1142.242,1325.533L1150.042,1346.933L1154.842,1346.933L1154.842,1311.333L1149.742,1311.333L1149.742,1332.783L1149.642,1332.783L1141.942,1311.333L1137.042,1311.333L1137.042,1346.933Z"/>
                <path id="I" d="M1161.055,1310.296L1168.228,1310.296L1168.228,1347.969L1161.055,1347.969L1161.055,1310.296ZM1162.092,1346.933L1167.192,1346.933L1167.192,1311.333L1162.092,1311.333L1162.092,1346.933Z"/>
                <path id="C" d="M1191.878,1338.983C1191.878,1340.225 1191.641,1341.401 1191.171,1342.512C1190.704,1343.612 1190.061,1344.591 1189.24,1345.449C1188.416,1346.31 1187.453,1346.994 1186.348,1347.5C1185.231,1348.011 1184.029,1348.269 1182.742,1348.269C1181.687,1348.269 1180.615,1348.125 1179.524,1347.834C1178.378,1347.528 1177.345,1346.993 1176.428,1346.229C1175.522,1345.474 1174.772,1344.505 1174.187,1343.315C1173.611,1342.145 1173.305,1340.653 1173.305,1338.833L1173.305,1319.233C1173.305,1317.928 1173.532,1316.716 1173.979,1315.598C1174.433,1314.464 1175.077,1313.482 1175.909,1312.65C1176.737,1311.821 1177.725,1311.17 1178.874,1310.699C1180.009,1310.233 1181.264,1309.996 1182.642,1309.996C1185.351,1309.996 1187.546,1310.897 1189.24,1312.666L1189.24,1312.666C1190.064,1313.527 1190.712,1314.546 1191.18,1315.725C1191.643,1316.893 1191.878,1318.161 1191.878,1319.533L1191.878,1322.569L1184.705,1322.569L1184.705,1319.833C1184.705,1319.077 1184.499,1318.42 1184.071,1317.866C1183.708,1317.396 1183.212,1317.169 1182.592,1317.169C1181.806,1317.169 1181.24,1317.308 1180.981,1317.794C1180.633,1318.448 1180.478,1319.28 1180.478,1320.283L1180.478,1338.483C1180.478,1339.291 1180.636,1339.974 1180.988,1340.522C1181.27,1340.961 1181.81,1341.096 1182.542,1341.096C1182.781,1341.096 1183.039,1341.05 1183.315,1340.966C1183.567,1340.89 1183.802,1340.763 1184.022,1340.591C1184.211,1340.415 1184.361,1340.173 1184.489,1339.874C1184.642,1339.517 1184.705,1339.068 1184.705,1338.533L1184.705,1335.746L1191.878,1335.746L1191.878,1338.983ZM1190.842,1336.783L1185.742,1336.783L1185.742,1338.533C1185.742,1339.233 1185.642,1339.816 1185.442,1340.283C1185.242,1340.749 1184.992,1341.116 1184.692,1341.383C1184.358,1341.649 1184,1341.841 1183.617,1341.958C1183.233,1342.074 1182.875,1342.133 1182.542,1342.133C1181.375,1342.133 1180.567,1341.783 1180.117,1341.083C1179.667,1340.383 1179.442,1339.516 1179.442,1338.483L1179.442,1320.283C1179.442,1319.083 1179.65,1318.091 1180.067,1317.308C1180.483,1316.524 1181.325,1316.133 1182.592,1316.133C1183.558,1316.133 1184.325,1316.499 1184.892,1317.233C1185.458,1317.966 1185.742,1318.833 1185.742,1319.833L1185.742,1321.533L1190.842,1321.533L1190.842,1319.533C1190.842,1318.299 1190.633,1317.158 1190.217,1316.108C1189.8,1315.058 1189.225,1314.149 1188.492,1313.383C1186.992,1311.816 1185.042,1311.033 1182.642,1311.033C1181.408,1311.033 1180.283,1311.241 1179.267,1311.658C1178.25,1312.074 1177.375,1312.649 1176.642,1313.383C1175.908,1314.116 1175.342,1314.983 1174.942,1315.983C1174.542,1316.983 1174.342,1318.066 1174.342,1319.233L1174.342,1338.833C1174.342,1340.466 1174.6,1341.808 1175.117,1342.858C1175.633,1343.908 1176.292,1344.766 1177.092,1345.433C1177.892,1346.099 1178.792,1346.566 1179.792,1346.833C1180.792,1347.099 1181.775,1347.233 1182.742,1347.233C1183.875,1347.233 1184.933,1347.008 1185.917,1346.558C1186.9,1346.108 1187.758,1345.499 1188.492,1344.733C1189.225,1343.966 1189.8,1343.091 1190.217,1342.108C1190.633,1341.124 1190.842,1340.083 1190.842,1338.983L1190.842,1336.783Z"/>
            </g>
            <g id="OLE">
                <path id="O" d="M1196.155,1319.733C1196.155,1318.137 1196.441,1316.728 1196.998,1315.504C1197.562,1314.263 1198.317,1313.232 1199.258,1312.404L1199.259,1312.403C1200.156,1311.618 1201.175,1311.019 1202.315,1310.608C1203.448,1310.199 1204.59,1309.996 1205.742,1309.996C1206.893,1309.996 1208.035,1310.199 1209.168,1310.608C1210.3,1311.016 1211.33,1311.61 1212.275,1312.404L1212.292,1312.419C1213.19,1313.242 1213.924,1314.269 1214.485,1315.504C1215.042,1316.728 1215.328,1318.137 1215.328,1319.733L1215.328,1338.533C1215.328,1340.205 1215.037,1341.633 1214.48,1342.822C1213.915,1344.027 1213.178,1345.021 1212.275,1345.811C1211.342,1346.632 1210.306,1347.247 1209.168,1347.657C1208.035,1348.066 1206.893,1348.269 1205.742,1348.269C1204.59,1348.269 1203.448,1348.066 1202.315,1347.657C1201.175,1347.246 1200.156,1346.631 1199.26,1345.814C1198.322,1345.022 1197.567,1344.026 1197.003,1342.822C1196.446,1341.633 1196.155,1340.205 1196.155,1338.533L1196.155,1319.733ZM1197.192,1319.733L1197.192,1338.533C1197.192,1340.033 1197.442,1341.316 1197.942,1342.383C1198.442,1343.449 1199.108,1344.333 1199.942,1345.033C1200.742,1345.766 1201.65,1346.316 1202.667,1346.683C1203.683,1347.049 1204.708,1347.233 1205.742,1347.233C1206.775,1347.233 1207.8,1347.049 1208.817,1346.683C1209.833,1346.316 1210.758,1345.766 1211.592,1345.033C1212.392,1344.333 1213.042,1343.449 1213.542,1342.383C1214.042,1341.316 1214.292,1340.033 1214.292,1338.533L1214.292,1319.733C1214.292,1318.299 1214.042,1317.033 1213.542,1315.933C1213.042,1314.833 1212.392,1313.916 1211.592,1313.183C1210.758,1312.483 1209.833,1311.949 1208.817,1311.583C1207.8,1311.216 1206.775,1311.033 1205.742,1311.033C1204.708,1311.033 1203.683,1311.216 1202.667,1311.583C1201.65,1311.949 1200.742,1312.483 1199.942,1313.183C1199.108,1313.916 1198.442,1314.833 1197.942,1315.933C1197.442,1317.033 1197.192,1318.299 1197.192,1319.733ZM1202.292,1338.533L1202.292,1319.733C1202.292,1318.499 1202.633,1317.591 1203.317,1317.008C1204,1316.424 1204.808,1316.133 1205.742,1316.133C1206.675,1316.133 1207.483,1316.424 1208.167,1317.008C1208.85,1317.591 1209.192,1318.499 1209.192,1319.733L1209.192,1338.533C1209.192,1339.766 1208.85,1340.674 1208.167,1341.258C1207.483,1341.841 1206.675,1342.133 1205.742,1342.133C1204.808,1342.133 1204,1341.841 1203.317,1341.258C1202.633,1340.674 1202.292,1339.766 1202.292,1338.533ZM1203.328,1338.533C1203.328,1339.4 1203.509,1340.059 1203.989,1340.469C1204.483,1340.89 1205.068,1341.096 1205.742,1341.096C1206.415,1341.096 1207,1340.89 1207.494,1340.469C1207.974,1340.059 1208.155,1339.4 1208.155,1338.533L1208.155,1319.733C1208.155,1318.866 1207.974,1318.206 1207.494,1317.796C1207,1317.375 1206.415,1317.169 1205.742,1317.169C1205.068,1317.169 1204.483,1317.375 1203.989,1317.796C1203.509,1318.206 1203.328,1318.866 1203.328,1319.733L1203.328,1338.533Z"/>
                <path id="L" d="M1220.255,1310.296L1227.428,1310.296L1227.428,1340.796L1237.528,1340.796L1237.528,1347.969L1220.255,1347.969L1220.255,1310.296ZM1221.292,1346.933L1236.492,1346.933L1236.492,1341.833L1226.392,1341.833L1226.392,1311.333L1221.292,1311.333L1221.292,1346.933Z"/>
                <path id="E1" d="M1241.255,1310.296L1258.528,1310.296L1258.528,1317.169L1248.428,1317.169L1248.428,1325.546L1257.228,1325.546L1257.228,1332.419L1248.428,1332.419L1248.428,1340.796L1258.528,1340.796L1258.528,1347.969L1241.255,1347.969L1241.255,1310.296ZM1242.292,1346.933L1257.492,1346.933L1257.492,1341.833L1247.392,1341.833L1247.392,1331.383L1256.192,1331.383L1256.192,1326.583L1247.392,1326.583L1247.392,1316.133L1257.492,1316.133L1257.492,1311.333L1242.292,1311.333L1242.292,1346.933Z"/>
            </g>
            <g id="TTE">
                <path id="T1" d="M1265.605,1317.169L1259.705,1317.169L1259.705,1310.296L1278.678,1310.296L1278.678,1317.169L1272.778,1317.169L1272.778,1347.969L1265.605,1347.969L1265.605,1317.169ZM1266.642,1346.933L1271.742,1346.933L1271.742,1316.133L1277.642,1316.133L1277.642,1311.333L1260.742,1311.333L1260.742,1316.133L1266.642,1316.133L1266.642,1346.933Z"/>
                <path id="T2" d="M1284.705,1317.169L1278.805,1317.169L1278.805,1310.296L1297.778,1310.296L1297.778,1317.169L1291.878,1317.169L1291.878,1347.969L1284.705,1347.969L1284.705,1317.169ZM1285.742,1346.933L1290.842,1346.933L1290.842,1316.133L1296.742,1316.133L1296.742,1311.333L1279.842,1311.333L1279.842,1316.133L1285.742,1316.133L1285.742,1346.933Z"/>
                <path id="E2" d="M1300.455,1310.296L1317.728,1310.296L1317.728,1317.169L1307.628,1317.169L1307.628,1325.546L1316.428,1325.546L1316.428,1332.419L1307.628,1332.419L1307.628,1340.796L1317.728,1340.796L1317.728,1347.969L1300.455,1347.969L1300.455,1310.296ZM1301.492,1346.933L1316.692,1346.933L1316.692,1341.833L1306.592,1341.833L1306.592,1331.383L1315.392,1331.383L1315.392,1326.583L1306.592,1326.583L1306.592,1316.133L1316.692,1316.133L1316.692,1311.333L1301.492,1311.333L1301.492,1346.933Z"/>
            </g>
        </g>
    </g>
</svg>
