<?xml version="1.0" encoding="UTF-8" standalone="no"?>
<!DOCTYPE svg PUBLIC "-//W3C//DTD SVG 1.1//EN" "http://www.w3.org/Graphics/SVG/1.1/DTD/svg11.dtd">
<svg width="100%" height="100%" viewBox="0 0 2179 526" version="1.1" xmlns="http://www.w3.org/2000/svg" xmlns:xlink="http://www.w3.org/1999/xlink" xml:space="preserve" xmlns:serif="http://www.serif.com/" style="fill-rule:evenodd;clip-rule:evenodd;stroke-miterlimit:1.5;">
    <g transform="matrix(1,0,0,1,-1343.788262,-209.929994)">
        <g id="gen-decor-1">
            <g id="lines">
                <g transform="matrix(2,0,0,2,-3897.637795,236.220472)">
                    <path d="M3484.252,-0L3401.575,118.11L2917.323,118.11" style="fill:none;stroke-width:14.58px;"/>
                </g>
                <g transform="matrix(0.55,0,-0,0.55,1445.669291,106.299213)">
                    <path d="M2881.89,708.661L3212.598,236.22" style="fill:none;stroke-width:53.03px;"/>
                </g>
                <g transform="matrix(0.55,0,0,0.55,1509.448819,106.299213)">
                    <path d="M3023.622,708.661L3354.331,236.22" style="fill:none;stroke-width:53.03px;"/>
                </g>
                <g transform="matrix(0.55,0,0,0.55,1573.228346,106.299213)">
                    <path d="M3165.354,708.661L3496.063,236.22" style="fill:none;stroke-width:53.03px;"/>
                </g>
            </g>
            <g id="spinning" transform="matrix(1,0,0,1,188.976378,0)">
                <path id="outer" d="M1228.383,614.173C1198.7,574.682 1181.102,525.6 1181.102,472.441C1181.102,419.281 1198.7,370.2 1228.383,330.709M1275.639,283.465C1315.122,253.804 1364.185,236.22 1417.323,236.22C1470.46,236.22 1519.524,253.804 1559.006,283.465M1606.263,330.709C1635.945,370.2 1653.543,419.281 1653.543,472.441C1653.543,525.6 1635.945,574.682 1606.263,614.173M1559.006,661.417C1519.524,691.078 1470.46,708.661 1417.323,708.661C1364.163,708.661 1315.082,691.064 1275.591,661.381" style="fill:none;stroke-width:29.17px;"/>
                <path id="inner-2" d="M1299.213,354.331L1535.433,590.551" style="fill:none;stroke-width:29.17px;"/>
                <path id="inner-1" d="M1535.433,354.294L1299.213,590.551" style="fill:none;stroke-width:29.17px;"/>
            </g>
            <g id="dashed-rects" transform="matrix(1.428571,0,0,2,-415.073116,-236.220472)">
                <path d="M2357.48,236.22L2291.339,307.087L2125.984,307.087L2192.126,236.22L2357.48,236.22ZM2125.984,236.22L2059.843,307.087L1894.488,307.087L1960.63,236.22L2125.984,236.22ZM1894.488,236.22L1828.346,307.087L1662.992,307.087L1729.134,236.22L1894.488,236.22Z"/>
            </g>
        </g>
    </g>
</svg>
