<?xml version="1.0" encoding="UTF-8" standalone="no"?>
<!DOCTYPE svg PUBLIC "-//W3C//DTD SVG 1.1//EN" "http://www.w3.org/Graphics/SVG/1.1/DTD/svg11.dtd">
<svg width="100%" height="100%" viewBox="0 0 2410 662" version="1.1" xmlns="http://www.w3.org/2000/svg" xmlns:xlink="http://www.w3.org/1999/xlink" xml:space="preserve" xmlns:serif="http://www.serif.com/" style="fill-rule:evenodd;clip-rule:evenodd;stroke-linejoin:round;stroke-miterlimit:2;">
    <g transform="matrix(1,0,0,1,0,-755.905512)">
        <g id="hero-index">
            <g id="surface" transform="matrix(1.054138,0,0,1.555556,-49.801816,-713.910761)">
                <path d="M1234.914,944.882L1234.914,1157.48L2332.948,1157.48L2332.948,1327.559C2332.948,1351.026 2304.833,1370.079 2270.204,1370.079L109.989,1370.079C75.359,1370.079 47.244,1351.026 47.244,1327.559L47.244,987.402C47.244,963.934 75.359,944.882 109.989,944.882L1234.914,944.882ZM1122.87,990.534L1100.321,975.253L114.611,975.253L92.062,990.534L92.062,1112.778L114.611,1128.058L1100.321,1128.058L1122.87,1112.778L1122.87,990.534ZM372.689,1106.229L132.328,1106.229L124.275,1100.772L124.275,1002.54L132.328,997.082L312.29,997.082L372.689,1106.229ZM842.243,997.082L1082.604,997.082L1090.657,1002.54L1090.657,1100.772L1082.604,1106.229L902.642,1106.229L842.243,997.082ZM359.052,997.082L614.284,997.082L553.885,1106.229L419.451,1106.229L359.052,997.082ZM855.88,1106.229L600.647,1106.229L661.046,997.082L795.481,997.082L855.88,1106.229Z"/>
            </g>
            <g id="text" transform="matrix(2.218154,0,0,2.218154,-2013.037533,-2911.999649)">
                <g transform="matrix(148.873773,0,0,148.873773,1896.361339,1928.506823)">
                </g>
                <text class="hero-index-text" x="913.635px" y="1928.507px" style="font-family:'AndaleMono', 'Andale Mono', monospace;font-size:148.874px;">Hero index:</text>
            </g>
            <g id="index" transform="matrix(2.218154,0,0,2.218154,-238.306943,-2910.877381)">
                <g transform="matrix(148.873773,0,0,148.873773,1181.65092,1928.506823)">
                </g>
                <text id="hero-index-value" x="1092.312px" y="1928.507px" style="font-family:'AndaleMono', 'Andale Mono', monospace;font-size:148.874px;">0</text>
            </g>
            <g id="horizontal-scroll-wrapper" transform="matrix(1.071929,0,0,1.333333,-38.26308,-1193.755906)">
                <path d="M2283.465,1514.173L2283.465,1712.598L1203.654,1711.479L1203.654,1462.269L2231.902,1464.567C2260.36,1464.567 2283.465,1486.795 2283.465,1514.173Z" style="fill:none;"/>
                <clipPath id="_clip1">
                    <path d="M2283.465,1514.173L2283.465,1712.598L1203.654,1711.479L1203.654,1462.269L2231.902,1464.567C2260.36,1464.567 2283.465,1486.795 2283.465,1514.173Z"/>
                </clipPath>
                <g clip-path="url(#_clip1)">
                    <g id="horizontal-scroller-pattern" transform="matrix(0.469805,0,0,0.490756,-138.803297,1056.400203)">
                        <path d="M1956.486,953.333L1709.051,1332.388L1544.094,1332.388L1874.008,826.981L2091.339,826.981L2008.86,953.333L1956.486,953.333ZM2613.179,953.333L2365.744,1332.388L2200.787,1332.388L2530.701,826.981L2748.031,826.981L2665.553,953.333L2613.179,953.333ZM3269.872,953.333L3022.437,1332.388L2857.48,1332.388L3187.394,826.981L3404.724,826.981L3322.246,953.333L3269.872,953.333ZM3926.565,953.333L3679.13,1332.388L3514.173,1332.388L3844.087,826.981L4061.417,826.981L3978.939,953.333L3926.565,953.333ZM4583.258,953.333L4335.823,1332.388L4170.866,1332.388L4500.78,826.981L4718.11,826.981L4635.632,953.333L4583.258,953.333ZM1215.748,1332.388L1545.662,826.981L1762.992,826.981L1680.514,953.333L1628.14,953.333L1380.705,1332.388L1215.748,1332.388ZM1215.748,829.382L1217.315,826.981L1434.646,826.981L1352.167,953.333L1299.794,953.333L1215.748,1082.085L1215.748,829.382ZM1872.441,1332.388L2202.354,826.981L2419.685,826.981L2337.207,953.333L2284.833,953.333L2037.398,1332.388L1872.441,1332.388ZM2529.134,1332.388L2859.047,826.981L3076.378,826.981L2993.9,953.333L2941.526,953.333L2694.091,1332.388L2529.134,1332.388ZM3185.827,1332.388L3515.74,826.981L3733.071,826.981L3650.592,953.333L3598.219,953.333L3350.784,1332.388L3185.827,1332.388ZM3842.52,1332.388L4172.433,826.981L4389.764,826.981L4307.285,953.333L4254.912,953.333L4007.476,1332.388L3842.52,1332.388ZM5155.906,1082.085L4992.516,1332.388L4827.559,1332.388L5155.906,829.382L5155.906,1082.085ZM4499.213,1332.388L4829.126,826.981L5046.457,826.981L4963.978,953.333L4911.605,953.333L4664.169,1332.388L4499.213,1332.388Z"/>
                    </g>
                </g>
            </g>
        </g>
    </g>
</svg>
