<?xml version="1.0" encoding="UTF-8" standalone="no"?>
<!DOCTYPE svg PUBLIC "-//W3C//DTD SVG 1.1//EN" "http://www.w3.org/Graphics/SVG/1.1/DTD/svg11.dtd">
<svg width="100%" height="100%" viewBox="0 0 3449 756" version="1.1" xmlns="http://www.w3.org/2000/svg" xmlns:xlink="http://www.w3.org/1999/xlink" xml:space="preserve" xmlns:serif="http://www.serif.com/" style="fill-rule:evenodd;clip-rule:evenodd;stroke-linejoin:round;stroke-miterlimit:2;">
    <g id="roster-card-decor">
        <path id="body" d="M3401.575,0L3448.819,47.244L3448.819,566.929L3259.843,755.906L2158.431,755.906L2016.699,614.173L661.417,614.173L614.173,566.929L566.929,614.173L47.244,614.173L0,566.929L0,47.244L47.244,0L566.929,0L614.173,47.244L661.417,0L3401.575,0Z"/>
        <path id="qr-code" class="top-left-decor__body" d="M264.567,128.504L247.559,128.504L247.559,145.512L230.551,145.512L230.551,94.488L247.559,94.488L247.559,111.496L264.567,111.496L264.567,128.504ZM315.591,162.52L315.591,179.528L281.575,179.528L281.575,162.52L315.591,162.52ZM349.606,145.512L383.622,145.512L383.622,162.52L349.606,162.52L349.606,145.512ZM281.575,128.504L281.575,94.488L332.598,94.488L332.598,111.496L315.591,111.496L315.591,128.504L332.598,128.504L332.598,111.496L349.606,111.496L349.606,145.512L332.598,145.512L332.598,162.52L315.591,162.52L315.591,145.512L298.583,145.512L298.583,128.504L281.575,128.504ZM264.567,128.504L281.575,128.504L281.575,145.512L264.567,145.512L264.567,128.504ZM349.606,298.583L332.598,298.583L332.598,281.575L349.606,281.575L349.606,298.583ZM349.606,281.575L349.606,247.559L366.614,247.559L366.614,281.575L349.606,281.575ZM128.504,264.567L145.512,264.567L145.512,281.575L162.52,281.575L162.52,264.567L213.543,264.567L213.543,281.575L196.535,281.575L196.535,298.583L179.528,298.583L179.528,315.591L196.535,315.591L196.535,332.598L179.528,332.598L179.528,349.606L196.535,349.606L196.535,366.614L213.543,366.614L213.543,349.606L247.559,349.606L247.559,366.614L230.551,366.614L230.551,383.622L162.52,383.622L162.52,366.614L145.512,366.614L145.512,383.622L128.504,383.622L128.504,349.606L162.52,349.606L162.52,332.598L128.504,332.598L128.504,349.606L111.496,349.606L111.496,383.622L94.488,383.622L94.488,315.591L111.496,315.591L111.496,298.583L128.504,298.583L128.504,315.591L145.512,315.591L145.512,298.583L128.504,298.583L128.504,264.567ZM230.551,383.622L247.559,383.622L247.559,400.63L281.575,400.63L281.575,383.622L315.591,383.622L315.591,366.614L332.598,366.614L332.598,400.63L349.606,400.63L349.606,417.638L332.598,417.638L332.598,434.646L315.591,434.646L315.591,451.654L298.583,451.654L298.583,417.638L315.591,417.638L315.591,400.63L298.583,400.63L298.583,417.638L281.575,417.638L281.575,451.654L264.567,451.654L264.567,434.646L247.559,434.646L247.559,468.661L230.551,468.661L230.551,383.622ZM315.591,451.654L332.598,451.654L332.598,434.646L349.606,434.646L349.606,417.638L366.614,417.638L366.614,349.606L383.622,349.606L383.622,366.614L417.638,366.614L417.638,349.606L434.646,349.606L434.646,366.614L451.654,366.614L451.654,451.654L417.638,451.654L417.638,468.661L400.63,468.661L400.63,502.677L383.622,502.677L383.622,485.669L366.614,485.669L366.614,468.661L383.622,468.661L383.622,451.654L349.606,451.654L349.606,468.661L332.598,468.661L332.598,485.669L298.583,485.669L298.583,468.661L315.591,468.661L315.591,451.654ZM400.63,502.677L417.638,502.677L417.638,519.685L400.63,519.685L400.63,502.677ZM417.638,502.677L417.638,485.669L434.646,485.669L434.646,468.661L485.669,468.661L485.669,417.638L502.677,417.638L502.677,434.646L519.685,434.646L519.685,519.685L502.677,519.685L502.677,502.677L468.661,502.677L468.661,485.669L451.654,485.669L451.654,502.677L417.638,502.677ZM451.654,502.677L468.661,502.677L468.661,519.685L451.654,519.685L451.654,502.677ZM502.677,417.638L502.677,400.63L519.685,400.63L519.685,417.638L502.677,417.638ZM502.677,400.63L468.661,400.63L468.661,366.614L451.654,366.614L451.654,349.606L434.646,349.606L434.646,315.591L451.654,315.591L451.654,332.598L485.669,332.598L485.669,315.591L502.677,315.591L502.677,332.598L519.685,332.598L519.685,366.614L502.677,366.614L502.677,349.606L485.669,349.606L485.669,366.614L502.677,366.614L502.677,400.63ZM502.677,315.591L502.677,298.583L451.654,298.583L451.654,281.575L400.63,281.575L400.63,264.567L417.638,264.567L417.638,247.559L434.646,247.559L434.646,230.551L451.654,230.551L451.654,247.559L468.661,247.559L468.661,230.551L519.685,230.551L519.685,247.559L502.677,247.559L502.677,264.567L468.661,264.567L468.661,281.575L502.677,281.575L502.677,264.567L519.685,264.567L519.685,315.591L502.677,315.591ZM400.63,281.575L400.63,298.583L383.622,298.583L383.622,281.575L400.63,281.575ZM400.63,298.583L434.646,298.583L434.646,315.591L400.63,315.591L400.63,298.583ZM417.638,349.606L383.622,349.606L383.622,332.598L417.638,332.598L417.638,349.606ZM383.622,332.598L366.614,332.598L366.614,349.606L349.606,349.606L349.606,366.614L332.598,366.614L332.598,349.606L298.583,349.606L298.583,366.614L264.567,366.614L264.567,349.606L281.575,349.606L281.575,332.598L315.591,332.598L315.591,315.591L349.606,315.591L349.606,298.583L366.614,298.583L366.614,315.591L383.622,315.591L383.622,332.598ZM315.591,315.591L281.575,315.591L281.575,298.583L298.583,298.583L298.583,264.567L315.591,264.567L315.591,315.591ZM281.575,298.583L264.567,298.583L264.567,281.575L281.575,281.575L281.575,298.583ZM264.567,298.583L264.567,315.591L230.551,315.591L230.551,298.583L264.567,298.583ZM230.551,315.591L230.551,332.598L213.543,332.598L213.543,315.591L230.551,315.591ZM213.543,315.591L196.535,315.591L196.535,298.583L213.543,298.583L213.543,315.591ZM247.559,349.606L247.559,332.598L264.567,332.598L264.567,349.606L247.559,349.606ZM213.543,349.606L196.535,349.606L196.535,332.598L213.543,332.598L213.543,349.606ZM264.567,281.575L230.551,281.575L230.551,264.567L264.567,264.567L264.567,281.575ZM349.606,247.559L332.598,247.559L332.598,230.551L315.591,230.551L315.591,213.543L332.598,213.543L332.598,179.528L349.606,179.528L349.606,247.559ZM298.583,213.543L298.583,247.559L145.512,247.559L145.512,230.551L264.567,230.551L264.567,196.535L281.575,196.535L281.575,213.543L298.583,213.543ZM315.591,213.543L298.583,213.543L298.583,196.535L315.591,196.535L315.591,213.543ZM383.622,502.677L383.622,519.685L366.614,519.685L366.614,502.677L383.622,502.677ZM247.559,468.661L264.567,468.661L264.567,485.669L247.559,485.669L247.559,468.661ZM332.598,485.669L349.606,485.669L349.606,519.685L298.583,519.685L298.583,502.677L332.598,502.677L332.598,485.669ZM111.496,298.583L94.488,298.583L94.488,281.575L111.496,281.575L111.496,298.583ZM128.504,264.567L94.488,264.567L94.488,230.551L111.496,230.551L111.496,247.559L128.504,247.559L128.504,264.567ZM434.646,383.622L383.622,383.622L383.622,434.646L434.646,434.646L434.646,383.622ZM400.63,400.63L417.638,400.63L417.638,417.638L400.63,417.638L400.63,400.63ZM94.488,94.488L213.543,94.488L213.543,213.543L94.488,213.543L94.488,94.488ZM196.535,111.496L111.496,111.496L111.496,196.535L196.535,196.535L196.535,111.496ZM128.504,128.504L179.528,128.504L179.528,179.528L128.504,179.528L128.504,128.504ZM400.63,94.488L519.685,94.488L519.685,213.543L400.63,213.543L400.63,94.488ZM502.677,111.496L417.638,111.496L417.638,196.535L502.677,196.535L502.677,111.496ZM434.646,128.504L485.669,128.504L485.669,179.528L434.646,179.528L434.646,128.504ZM230.551,162.52L264.567,162.52L264.567,179.528L230.551,179.528L230.551,162.52ZM230.551,196.535L247.559,196.535L247.559,213.543L230.551,213.543L230.551,196.535ZM366.614,196.535L383.622,196.535L383.622,213.543L366.614,213.543L366.614,196.535ZM383.622,230.551L400.63,230.551L400.63,247.559L383.622,247.559L383.622,230.551ZM94.488,400.63L213.543,400.63L213.543,519.685L94.488,519.685L94.488,400.63ZM196.535,417.638L111.496,417.638L111.496,502.677L196.535,502.677L196.535,417.638ZM128.504,434.646L179.528,434.646L179.528,485.669L128.504,485.669L128.504,434.646ZM230.551,502.677L281.575,502.677L281.575,519.685L230.551,519.685L230.551,502.677ZM480.085,559.285L480.085,550.951L550.951,550.951L550.951,480.085L559.285,480.085L559.285,559.285L480.085,559.285ZM559.285,134.088L550.951,134.088L550.951,63.222L480.085,63.222L480.085,54.888L559.285,54.888L559.285,134.088ZM134.088,54.888L134.088,63.222L63.222,63.222L63.222,134.088L54.888,134.088L54.888,54.888L134.088,54.888ZM54.888,480.085L63.222,480.085L63.222,550.951L134.088,550.951L134.088,559.285L54.888,559.285L54.888,480.085Z"/>
        <path id="dashed" class="top-left-decor__body" d="M727.252,519.687L718.919,519.687L718.919,486.354L727.252,486.354L727.252,519.687ZM727.252,453.021L718.919,453.021L718.919,419.687L727.252,419.687L727.252,453.021ZM727.252,386.354L718.919,386.354L718.919,353.021L727.252,353.021L727.252,386.354ZM727.252,319.688L718.919,319.688L718.919,286.355L727.252,286.355L727.252,319.688ZM727.252,253.021L718.919,253.021L718.919,219.688L727.252,219.688L727.252,253.021ZM727.252,186.355L718.919,186.355L718.919,153.021L727.252,153.021L727.252,186.355ZM727.252,119.688L718.919,119.688L718.919,86.354L727.252,86.354L727.252,119.688ZM727.252,53.021L718.919,53.021L718.919,19.688L727.252,19.688L727.252,53.021Z"/>
        <g id="roster-card-text">
            <path id="initial-character" class="top-left-decor__body-accent" d="M916.116,225.634L916.116,279.192L984.282,211.027L858.602,211.027L858.602,153.513L1042.1,153.513L1082.878,194.29L973.935,303.233L1082.878,303.233L1082.878,360.747L972.414,360.747L916.116,304.754L916.116,360.747L858.602,360.747L858.602,225.634L916.116,225.634Z" style="fill-rule:nonzero;"/>
            <path id="characters" class="top-left-decor__body" d="M1135.827,360.747L1095.05,319.97L1095.05,225.634L1152.564,225.634L1152.564,303.233L1261.507,303.233L1261.507,211.027L1095.05,211.027L1095.05,194.29L1135.827,153.513L1278.548,153.513L1319.326,194.29L1319.326,319.97L1278.548,360.747L1135.827,360.747ZM1444.396,225.634L1538.732,319.97L1497.955,360.747L1389.012,360.747L1331.498,303.233L1440.44,303.233L1362.842,225.634L1444.396,225.634ZM1348.235,211.027L1331.498,194.29L1372.275,153.513L1555.773,153.513L1555.773,211.027L1348.235,211.027ZM1734.403,225.634L1734.403,360.747L1676.888,360.747L1676.888,225.634L1734.403,225.634ZM1693.625,153.513L1734.403,194.29L1734.403,153.513L1792.221,153.513L1792.221,211.027L1567.946,211.027L1567.946,153.513L1693.625,153.513ZM1821.131,211.027L1804.394,194.29L1845.171,153.513L2028.669,153.513L2028.669,211.027L1821.131,211.027ZM1948.94,257.282L1902.685,303.233L2028.669,303.233L1970.851,360.747L1845.171,360.747L1804.394,319.97L1867.386,257.282L1835.738,225.634L1917.292,225.634L1948.94,257.282ZM2098.356,225.634L2098.356,279.192L2166.521,211.027L2040.842,211.027L2040.842,153.513L2224.34,153.513L2265.117,194.29L2156.175,303.233L2265.117,303.233L2265.117,360.747L2154.653,360.747L2098.356,304.754L2098.356,360.747L2040.842,360.747L2040.842,225.634L2098.356,225.634ZM2385.319,211.027L2385.319,194.29L2426.097,153.513L2609.595,153.513L2609.595,211.027L2385.319,211.027ZM2609.595,303.233L2551.776,360.747L2426.097,360.747L2385.319,319.97L2385.319,225.634L2442.834,225.634L2442.834,303.233L2609.595,303.233ZM2846.043,153.513L2846.043,360.747L2662.545,360.747L2621.767,319.97L2716.407,225.634L2788.224,225.634L2788.224,211.027L2621.767,211.027L2621.767,209.81L2678.064,153.513L2846.043,153.513ZM2788.224,303.233L2788.224,235.067L2720.059,303.233L2788.224,303.233ZM2915.729,225.634L2915.729,279.192L2983.895,211.027L2858.215,211.027L2858.215,153.513L3041.713,153.513L3082.491,194.29L2973.548,303.233L3082.491,303.233L3082.491,360.747L2972.027,360.747L2915.729,304.754L2915.729,360.747L2858.215,360.747L2858.215,225.634L2915.729,225.634ZM3261.12,303.233L3261.12,211.027L3094.663,211.027L3094.663,153.513L3278.161,153.513L3318.939,194.29L3318.939,319.97L3278.161,360.747L3094.663,360.747L3094.663,225.634L3152.177,225.634L3152.177,303.233L3261.12,303.233Z"/>
            <path id="characters-frame" class="top-left-decor__body" d="M3377.463,472.441L3330.218,519.685L849.904,519.685L802.659,472.441L802.659,94.488L3330.218,94.488L3377.953,143.984L3377.463,472.441ZM3353.841,153.543L3318.407,118.11L826.281,118.11L826.281,460.63L861.715,496.063L3318.407,496.063L3353.841,460.63L3353.841,153.543ZM1107.4,460.671L1138.263,399.239L1158.593,399.239L1150.878,414.597L1145.978,414.597L1122.831,460.671L1107.4,460.671ZM984.537,460.671L1015.399,399.239L1035.73,399.239L1028.014,414.597L1023.115,414.597L999.968,460.671L984.537,460.671ZM1045.968,460.671L1076.831,399.239L1097.162,399.239L1089.446,414.597L1084.546,414.597L1061.4,460.671L1045.968,460.671ZM2036.737,414.597L2013.59,460.671L1998.159,460.671L2029.021,399.239L2049.352,399.239L2041.636,414.597L2036.737,414.597ZM923.105,460.671L953.968,399.239L974.298,399.239L966.583,414.597L961.683,414.597L938.536,460.671L923.105,460.671ZM861.674,460.671L892.536,399.239L912.867,399.239L905.151,414.597L900.252,414.597L877.105,460.671L861.674,460.671ZM861.674,399.531L861.82,399.239L882.151,399.239L874.435,414.597L869.536,414.597L861.674,430.247L861.674,399.531ZM1791.01,414.597L1767.863,460.671L1752.432,460.671L1783.295,399.239L1803.625,399.239L1795.91,414.597L1791.01,414.597ZM1975.305,414.597L1952.158,460.671L1936.727,460.671L1967.589,399.239L1987.92,399.239L1980.204,414.597L1975.305,414.597ZM1852.442,414.597L1829.295,460.671L1813.864,460.671L1844.726,399.239L1865.057,399.239L1857.341,414.597L1852.442,414.597ZM1913.873,414.597L1890.727,460.671L1875.295,460.671L1906.158,399.239L1926.488,399.239L1918.773,414.597L1913.873,414.597ZM1729.579,414.597L1706.432,460.671L1691.001,460.671L1721.863,399.239L1742.194,399.239L1734.478,414.597L1729.579,414.597ZM3134.644,460.671L3165.506,399.239L3185.837,399.239L3178.121,414.597L3173.222,414.597L3150.075,460.671L3134.644,460.671ZM3257.507,460.671L3288.369,399.239L3308.7,399.239L3300.984,414.597L3296.085,414.597L3272.938,460.671L3257.507,460.671ZM3196.075,460.671L3226.938,399.239L3247.268,399.239L3239.553,414.597L3234.653,414.597L3211.507,460.671L3196.075,460.671ZM3318.939,430.247L3303.654,460.671L3288.223,460.671L3318.939,399.531L3318.939,430.247ZM2520.327,460.671L2551.19,399.239L2571.52,399.239L2563.805,414.597L2558.905,414.597L2535.759,460.671L2520.327,460.671ZM3073.212,460.671L3104.074,399.239L3124.405,399.239L3116.69,414.597L3111.79,414.597L3088.643,460.671L3073.212,460.671ZM2950.349,460.671L2981.211,399.239L3001.542,399.239L2993.826,414.597L2988.927,414.597L2965.78,460.671L2950.349,460.671ZM3011.78,460.671L3042.643,399.239L3062.973,399.239L3055.258,414.597L3050.358,414.597L3027.212,460.671L3011.78,460.671ZM2766.054,460.671L2796.916,399.239L2817.247,399.239L2809.531,414.597L2804.632,414.597L2781.485,460.671L2766.054,460.671ZM2827.486,460.671L2858.348,399.239L2878.679,399.239L2870.963,414.597L2866.064,414.597L2842.917,460.671L2827.486,460.671ZM2888.917,460.671L2919.78,399.239L2940.11,399.239L2932.395,414.597L2927.495,414.597L2904.348,460.671L2888.917,460.671ZM2581.759,460.671L2612.621,399.239L2632.952,399.239L2625.237,414.597L2620.337,414.597L2597.19,460.671L2581.759,460.671ZM2704.622,460.671L2735.485,399.239L2755.815,399.239L2748.1,414.597L2743.2,414.597L2720.054,460.671L2704.622,460.671ZM2643.191,460.671L2674.053,399.239L2694.384,399.239L2686.668,414.597L2681.769,414.597L2658.622,460.671L2643.191,460.671ZM1115.262,414.597L1092.116,460.671L1076.684,460.671L1107.547,399.239L1127.877,399.239L1120.162,414.597L1115.262,414.597ZM1606.715,414.597L1583.568,460.671L1568.137,460.671L1599,399.239L1619.33,399.239L1611.615,414.597L1606.715,414.597ZM1668.147,414.597L1645,460.671L1629.569,460.671L1660.431,399.239L1680.762,399.239L1673.046,414.597L1668.147,414.597ZM992.399,414.597L969.252,460.671L953.821,460.671L984.683,399.239L1005.014,399.239L997.298,414.597L992.399,414.597ZM1545.284,414.597L1522.137,460.671L1506.706,460.671L1537.568,399.239L1557.899,399.239L1550.183,414.597L1545.284,414.597ZM1299.557,414.597L1276.41,460.671L1260.979,460.671L1291.842,399.239L1312.172,399.239L1304.457,414.597L1299.557,414.597ZM1483.852,414.597L1460.705,460.671L1445.274,460.671L1476.136,399.239L1496.467,399.239L1488.751,414.597L1483.852,414.597ZM1360.989,414.597L1337.842,460.671L1322.411,460.671L1353.273,399.239L1373.604,399.239L1365.888,414.597L1360.989,414.597ZM1422.42,414.597L1399.274,460.671L1383.842,460.671L1414.705,399.239L1435.035,399.239L1427.32,414.597L1422.42,414.597ZM1053.831,414.597L1030.684,460.671L1015.253,460.671L1046.115,399.239L1066.446,399.239L1058.73,414.597L1053.831,414.597ZM1238.126,414.597L1214.979,460.671L1199.548,460.671L1230.41,399.239L1250.741,399.239L1243.025,414.597L1238.126,414.597ZM930.967,414.597L907.821,460.671L892.389,460.671L923.252,399.239L943.582,399.239L935.867,414.597L930.967,414.597ZM1176.694,414.597L1153.547,460.671L1138.116,460.671L1168.978,399.239L1189.309,399.239L1181.593,414.597L1176.694,414.597ZM2098.168,414.597L2075.021,460.671L2059.59,460.671L2090.453,399.239L2110.783,399.239L2103.068,414.597L2098.168,414.597ZM1906.011,460.671L1936.874,399.239L1957.204,399.239L1949.489,414.597L1944.589,414.597L1921.442,460.671L1906.011,460.671ZM1844.58,460.671L1875.442,399.239L1895.773,399.239L1888.057,414.597L1883.158,414.597L1860.011,460.671L1844.58,460.671ZM1721.716,460.671L1752.579,399.239L1772.909,399.239L1765.194,414.597L1760.294,414.597L1737.148,460.671L1721.716,460.671ZM1783.148,460.671L1814.01,399.239L1834.341,399.239L1826.625,414.597L1821.726,414.597L1798.579,460.671L1783.148,460.671ZM1168.832,460.671L1199.694,399.239L1220.025,399.239L1212.309,414.597L1207.41,414.597L1184.263,460.671L1168.832,460.671ZM1660.285,460.671L1691.147,399.239L1711.478,399.239L1703.762,414.597L1698.863,414.597L1675.716,460.671L1660.285,460.671ZM1598.853,460.671L1629.716,399.239L1650.046,399.239L1642.331,414.597L1637.431,414.597L1614.284,460.671L1598.853,460.671ZM1475.99,460.671L1506.852,399.239L1527.183,399.239L1519.467,414.597L1514.568,414.597L1491.421,460.671L1475.99,460.671ZM1537.421,460.671L1568.284,399.239L1588.614,399.239L1580.899,414.597L1575.999,414.597L1552.853,460.671L1537.421,460.671ZM1230.263,460.671L1261.126,399.239L1281.456,399.239L1273.741,414.597L1268.841,414.597L1245.695,460.671L1230.263,460.671ZM1414.558,460.671L1445.421,399.239L1465.751,399.239L1458.036,414.597L1453.136,414.597L1429.989,460.671L1414.558,460.671ZM1353.127,460.671L1383.989,399.239L1404.32,399.239L1396.604,414.597L1391.705,414.597L1368.558,460.671L1353.127,460.671ZM1291.695,460.671L1322.557,399.239L1342.888,399.239L1335.172,414.597L1330.273,414.597L1307.126,460.671L1291.695,460.671ZM2458.896,460.671L2489.758,399.239L2510.089,399.239L2502.373,414.597L2497.474,414.597L2474.327,460.671L2458.896,460.671ZM2835.348,414.597L2812.201,460.671L2796.77,460.671L2827.632,399.239L2847.963,399.239L2840.247,414.597L2835.348,414.597ZM2397.464,460.671L2428.327,399.239L2448.657,399.239L2440.942,414.597L2436.042,414.597L2412.895,460.671L2397.464,460.671ZM2151.738,460.671L2182.6,399.239L2202.931,399.239L2195.215,414.597L2190.316,414.597L2167.169,460.671L2151.738,460.671ZM2336.033,460.671L2366.895,399.239L2387.226,399.239L2379.51,414.597L2374.611,414.597L2351.464,460.671L2336.033,460.671ZM2213.169,460.671L2244.032,399.239L2264.362,399.239L2256.647,414.597L2251.747,414.597L2228.601,460.671L2213.169,460.671ZM2274.601,460.671L2305.463,399.239L2325.794,399.239L2318.078,414.597L2313.179,414.597L2290.032,460.671L2274.601,460.671ZM2896.779,414.597L2873.633,460.671L2858.201,460.671L2889.064,399.239L2909.394,399.239L2901.679,414.597L2896.779,414.597ZM2090.306,460.671L2121.169,399.239L2141.499,399.239L2133.784,414.597L2128.884,414.597L2105.737,460.671L2090.306,460.671ZM3203.938,414.597L3180.791,460.671L3165.36,460.671L3196.222,399.239L3216.553,399.239L3208.837,414.597L3203.938,414.597ZM3265.369,414.597L3242.222,460.671L3226.791,460.671L3257.654,399.239L3277.984,399.239L3270.269,414.597L3265.369,414.597ZM3081.074,414.597L3057.927,460.671L3042.496,460.671L3073.359,399.239L3093.689,399.239L3085.974,414.597L3081.074,414.597ZM3142.506,414.597L3119.359,460.671L3103.928,460.671L3134.79,399.239L3155.121,399.239L3147.405,414.597L3142.506,414.597ZM2958.211,414.597L2935.064,460.671L2919.633,460.671L2950.495,399.239L2970.826,399.239L2963.11,414.597L2958.211,414.597ZM3019.643,414.597L2996.496,460.671L2981.065,460.671L3011.927,399.239L3032.258,399.239L3024.542,414.597L3019.643,414.597ZM1967.443,460.671L1998.305,399.239L2018.636,399.239L2010.92,414.597L2006.021,414.597L1982.874,460.671L1967.443,460.671ZM2773.916,414.597L2750.769,460.671L2735.338,460.671L2766.201,399.239L2786.531,399.239L2778.816,414.597L2773.916,414.597ZM2651.053,414.597L2627.906,460.671L2612.475,460.671L2643.337,399.239L2663.668,399.239L2655.952,414.597L2651.053,414.597ZM2712.485,414.597L2689.338,460.671L2673.907,460.671L2704.769,399.239L2725.1,399.239L2717.384,414.597L2712.485,414.597ZM2528.19,414.597L2505.043,460.671L2489.612,460.671L2520.474,399.239L2540.805,399.239L2533.089,414.597L2528.19,414.597ZM2589.621,414.597L2566.474,460.671L2551.043,460.671L2581.906,399.239L2602.236,399.239L2594.521,414.597L2589.621,414.597ZM2343.895,414.597L2320.748,460.671L2305.317,460.671L2336.179,399.239L2356.51,399.239L2348.794,414.597L2343.895,414.597ZM2466.758,414.597L2443.611,460.671L2428.18,460.671L2459.042,399.239L2479.373,399.239L2471.657,414.597L2466.758,414.597ZM2405.326,414.597L2382.18,460.671L2366.748,460.671L2397.611,399.239L2417.941,399.239L2410.226,414.597L2405.326,414.597ZM2028.874,460.671L2059.737,399.239L2080.067,399.239L2072.352,414.597L2067.452,414.597L2044.306,460.671L2028.874,460.671ZM2282.463,414.597L2259.316,460.671L2243.885,460.671L2274.748,399.239L2295.078,399.239L2287.363,414.597L2282.463,414.597ZM2159.6,414.597L2136.453,460.671L2121.022,460.671L2151.884,399.239L2172.215,399.239L2164.499,414.597L2159.6,414.597ZM2221.032,414.597L2197.885,460.671L2182.454,460.671L2213.316,399.239L2233.647,399.239L2225.931,414.597L2221.032,414.597Z"/>
        </g>
        <path id="dev-name" class="top-left-decor__body" d="M2632.398,586.039L2586.614,586.039L2586.614,708.661L2566.31,708.661L2566.31,586.039L2542.82,586.039L2542.82,566.929L2676.192,566.929L2676.192,586.039L2652.703,586.039L2652.703,708.661L2632.398,708.661L2632.398,586.039ZM2158.431,708.661L2158.431,566.929L2177.939,566.929L2204.017,641.976L2204.415,641.976L2230.293,566.929L2250,566.929L2250,708.661L2229.696,708.661L2229.696,622.467L2229.298,622.467L2209.192,683.381L2199.04,683.381L2179.134,622.467L2178.736,622.467L2178.736,708.661L2158.431,708.661ZM2269.707,708.661L2269.707,566.929L2290.012,566.929L2290.012,708.661L2269.707,708.661ZM2309.719,708.661L2309.719,566.929L2339.777,566.929C2351.455,566.929 2360.314,570.114 2366.352,576.484C2372.39,582.854 2375.409,591.878 2375.409,603.557L2375.409,669.844C2375.409,683.115 2372.191,692.902 2365.755,699.206C2359.318,705.51 2350.062,708.661 2337.985,708.661L2309.719,708.661ZM2330.023,586.039L2330.023,689.551L2339.379,689.551C2345.085,689.551 2349.133,688.125 2351.522,685.272C2353.91,682.418 2355.105,677.939 2355.105,671.835L2355.105,603.557C2355.105,597.983 2353.977,593.67 2351.721,590.618C2349.465,587.565 2345.351,586.039 2339.379,586.039L2330.023,586.039ZM2393.723,708.661L2393.723,566.929L2413.231,566.929L2443.887,652.327L2444.285,652.327L2444.285,566.929L2464.589,566.929L2464.589,708.661L2445.479,708.661L2414.425,623.463L2414.027,623.463L2414.027,708.661L2393.723,708.661ZM2473.746,708.661L2505.397,566.929L2522.317,566.929L2553.968,708.661L2533.664,708.661L2527.692,678.205L2500.022,678.205L2494.05,708.661L2473.746,708.661ZM2523.91,659.095L2513.956,607.737L2513.558,607.737L2503.605,659.095L2523.91,659.095ZM2722.176,708.661L2722.176,566.929L2742.48,566.929L2742.48,688.357L2782.69,688.357L2782.69,708.661L2722.176,708.661ZM2786.672,708.661L2818.323,566.929L2835.243,566.929L2866.894,708.661L2846.589,708.661L2840.618,678.205L2812.948,678.205L2806.976,708.661L2786.672,708.661ZM2836.835,659.095L2826.882,607.737L2826.484,607.737L2816.531,659.095L2836.835,659.095ZM2876.051,708.661L2876.051,566.929L2895.559,566.929L2926.214,652.327L2926.612,652.327L2926.612,566.929L2946.917,566.929L2946.917,708.661L2927.807,708.661L2896.753,623.463L2896.355,623.463L2896.355,708.661L2876.051,708.661ZM2978.568,708.661L2978.568,586.039L2955.078,586.039L2955.078,566.929L3022.361,566.929L3022.361,586.039L2998.872,586.039L2998.872,708.661L2978.568,708.661ZM3031.319,708.661L3031.319,566.929L3091.834,566.929L3091.834,586.039L3051.623,586.039L3051.623,627.643L3086.658,627.643L3086.658,646.753L3051.623,646.753L3051.623,688.357L3091.834,688.357L3091.834,708.661L3031.319,708.661ZM3104.972,708.661L3104.972,566.929L3137.618,566.929C3161.506,566.929 3173.45,580.797 3173.45,608.533C3173.45,616.894 3172.156,623.994 3169.568,629.833C3166.98,635.672 3162.435,640.383 3155.932,643.966L3177.829,708.661L3156.33,708.661L3137.419,648.147L3125.276,648.147L3125.276,708.661L3104.972,708.661ZM3125.276,586.039L3125.276,630.231L3136.822,630.231C3140.405,630.231 3143.258,629.733 3145.382,628.738C3147.505,627.743 3149.164,626.316 3150.358,624.458C3151.42,622.6 3152.15,620.311 3152.548,617.59C3152.946,614.87 3153.145,611.718 3153.145,608.135C3153.145,604.552 3152.946,601.4 3152.548,598.68C3152.15,595.959 3151.354,593.603 3150.159,591.613C3147.638,587.897 3142.86,586.039 3135.827,586.039L3125.276,586.039ZM3188.976,708.661L3188.976,566.929L3208.484,566.929L3239.14,652.327L3239.538,652.327L3239.538,566.929L3259.843,566.929L3259.843,708.661L3240.733,708.661L3209.679,623.463L3209.281,623.463L3209.281,708.661L3188.976,708.661Z"/>
    </g>
</svg>
