<?xml version="1.0" encoding="UTF-8" standalone="no"?>
<!DOCTYPE svg PUBLIC "-//W3C//DTD SVG 1.1//EN" "http://www.w3.org/Graphics/SVG/1.1/DTD/svg11.dtd">
<svg width="100%" height="100%" viewBox="0 0 1182 473" version="1.1" xmlns="http://www.w3.org/2000/svg" xmlns:xlink="http://www.w3.org/1999/xlink" xml:space="preserve" xmlns:serif="http://www.serif.com/" style="fill-rule:evenodd;clip-rule:evenodd;stroke-linejoin:round;stroke-miterlimit:2;">
    <g transform="matrix(1,0,0,1,-472.440945,0)">
        <g id="selector-decor-left" transform="matrix(1,0,0,1,-236.220472,-1889.76378)">
            <g id="body" transform="matrix(1,0,0,1,236.220472,-0)">
                <path d="M1653.543,2125.984L1535.433,2007.874L1133.858,2007.874L1015.748,2125.984L708.661,2125.984L472.441,2362.205L1653.543,2362.205L1653.543,2125.984Z"/>
            </g>
            <g id="dash-left" transform="matrix(0.510028,0,0,0.466163,1152.268703,1131.494966)">
                <path class="selector-decor-dash" d="M1126.493,1944.374L1141.224,1929.642L1330.2,2118.619L1315.469,2133.35L1126.493,1944.374ZM1235.712,2118.619L1220.981,2133.35L1032.004,1944.374L1046.736,1929.642L1235.712,2118.619ZM1141.224,2118.619L1126.493,2133.35L940.567,1947.425L519.685,1947.425L519.685,1926.591L949.197,1926.591L1141.224,2118.619Z"/>
            </g>
            <g id="waves" transform="matrix(1,0,0,1,0,708.661417)">
                <path class="selector-decor-waves" d="M783.947,1578.258L805.738,1600.049L895.049,1600.049L942.293,1552.805L1041.959,1552.805L1089.203,1600.049L1178.514,1600.049L1225.758,1552.805L1325.423,1552.805L1372.668,1600.049L1461.978,1600.049L1509.222,1552.805L1608.888,1552.805L1656.132,1600.049L1745.443,1600.049L1792.687,1552.805L1889.764,1552.805L1889.764,1565.305L1797.864,1565.305L1750.62,1612.549L1650.954,1612.549L1603.71,1565.305L1514.4,1565.305L1467.156,1612.549L1367.49,1612.549L1320.246,1565.305L1230.935,1565.305L1183.691,1612.549L1084.025,1612.549L1036.781,1565.305L947.471,1565.305L900.227,1612.549L800.561,1612.549L775.108,1587.097L783.947,1578.258Z"/>
            </g>
            <g id="holes-left" transform="matrix(1,0,0,1,0,755.905512)">
                <path class="selector-decor-holes" d="M980.315,1440.945C986.834,1440.945 992.126,1446.237 992.126,1452.756C992.126,1459.275 986.834,1464.567 980.315,1464.567C973.796,1464.567 968.504,1459.275 968.504,1452.756C968.504,1446.237 973.796,1440.945 980.315,1440.945ZM1216.535,1440.945C1223.054,1440.945 1228.346,1446.237 1228.346,1452.756C1228.346,1459.275 1223.054,1464.567 1216.535,1464.567C1210.017,1464.567 1204.724,1459.275 1204.724,1452.756C1204.724,1446.237 1210.017,1440.945 1216.535,1440.945ZM1452.756,1440.945C1459.275,1440.945 1464.567,1446.237 1464.567,1452.756C1464.567,1459.275 1459.275,1464.567 1452.756,1464.567C1446.237,1464.567 1440.945,1459.275 1440.945,1452.756C1440.945,1446.237 1446.237,1440.945 1452.756,1440.945ZM1688.976,1440.945C1695.495,1440.945 1700.787,1446.237 1700.787,1452.756C1700.787,1459.275 1695.495,1464.567 1688.976,1464.567C1682.458,1464.567 1677.165,1459.275 1677.165,1452.756C1677.165,1446.237 1682.458,1440.945 1688.976,1440.945Z"/>
            </g>
            <g id="left-fragments" transform="matrix(1,0,0,1,-612.700089,568.402273)">
                <path class="selector-decor-fragments" d="M1606.299,1325.781L1418.796,1513.284L1415.85,1510.338L1604.826,1321.362L1606.299,1322.835L1606.299,1325.781ZM1606.299,1467.513L1560.528,1513.284L1557.582,1510.338L1606.299,1461.621L1606.299,1467.513ZM1606.299,1420.269L1513.284,1513.284L1510.338,1510.338L1606.299,1414.377L1606.299,1420.269ZM1606.299,1373.025L1466.04,1513.284L1463.094,1510.338L1606.299,1367.132L1606.299,1373.025ZM1321.362,1510.338L1510.338,1321.362L1513.284,1324.308L1324.308,1513.284L1321.362,1510.338ZM1321.362,1368.606L1368.606,1321.362L1371.552,1324.308L1321.362,1374.498L1321.362,1368.606ZM1321.362,1415.85L1415.85,1321.362L1418.796,1324.308L1321.362,1421.742L1321.362,1415.85ZM1321.362,1463.094L1463.094,1321.362L1466.04,1324.308L1321.362,1468.986L1321.362,1463.094ZM1371.552,1513.284L1368.606,1510.338L1557.582,1321.362L1560.528,1324.308L1371.552,1513.284Z"/>
            </g>
        </g>
    </g>
</svg>
