<?xml version="1.0" encoding="UTF-8" standalone="no"?>
<!DOCTYPE svg PUBLIC "-//W3C//DTD SVG 1.1//EN" "http://www.w3.org/Graphics/SVG/1.1/DTD/svg11.dtd">
<svg width="100%" height="100%" viewBox="0 0 1182 473" version="1.1" xmlns="http://www.w3.org/2000/svg" xmlns:xlink="http://www.w3.org/1999/xlink" xml:space="preserve" xmlns:serif="http://www.serif.com/" style="fill-rule:evenodd;clip-rule:evenodd;stroke-linejoin:round;stroke-miterlimit:2;">
    <g transform="matrix(1,0,0,1,-236.220472,-1181.102362)">
        <g id="selector-decor-right" transform="matrix(1,0,0,1,0,-708.661417)">
            <g id="body" transform="matrix(1,0,0,1,236.220472,-0)">
                <path d="M1062.992,2244.094L826.772,2244.094L590.551,2007.874L354.331,2007.874L236.22,2125.984L0,2125.984L0,2362.205L1181.102,2362.205L1062.992,2244.094Z"/>
            </g>
            <g id="dash-right" transform="matrix(1,0,0,1,-909.448819,95.224759)">
                <path class="selector-decor-dash" d="M1736.799,1937.008L1736.799,1957.841L1561.844,1957.841L1488.926,2030.759L1418.059,2030.759L1511.811,1937.008L1736.799,1937.008Z"/>
            </g>
            <g id="right-waves" transform="matrix(1,0,0,1,-47.244094,708.661417)">
                <path class="selector-decor-waves" d="M283.465,1612.549L283.465,1600.049L328.12,1600.049L375.364,1552.805L475.03,1552.805L522.274,1600.049L611.584,1600.049L658.828,1552.805L758.494,1552.805L805.738,1600.049L895.049,1600.049L942.293,1552.805L1041.959,1552.805L1089.203,1600.049L1178.514,1600.049L1225.758,1552.805L1325.423,1552.805L1372.668,1600.049L1411.073,1600.049L1423.573,1612.549L1367.49,1612.549L1320.246,1565.305L1230.935,1565.305L1183.691,1612.549L1084.025,1612.549L1036.781,1565.305L947.471,1565.305L900.227,1612.549L800.561,1612.549L753.317,1565.305L664.006,1565.305L616.762,1612.549L517.096,1612.549L469.852,1565.305L380.542,1565.305L333.297,1612.549L283.465,1612.549Z"/>
            </g>
            <g id="right-fragments-1" transform="matrix(1,0,0,1,-519.685039,568.402273)">
                <path class="selector-decor-fragments" d="M1606.299,1325.781L1418.796,1513.284L1415.85,1510.338L1604.826,1321.362L1606.299,1322.835L1606.299,1325.781ZM1606.299,1467.513L1560.528,1513.284L1557.582,1510.338L1606.299,1461.621L1606.299,1467.513ZM1606.299,1420.269L1513.284,1513.284L1510.338,1510.338L1606.299,1414.377L1606.299,1420.269ZM1606.299,1373.025L1466.04,1513.284L1463.094,1510.338L1606.299,1367.132L1606.299,1373.025ZM1321.362,1510.338L1510.338,1321.362L1513.284,1324.308L1324.308,1513.284L1321.362,1510.338ZM1321.362,1368.606L1368.606,1321.362L1371.552,1324.308L1321.362,1374.498L1321.362,1368.606ZM1321.362,1415.85L1415.85,1321.362L1418.796,1324.308L1321.362,1421.742L1321.362,1415.85ZM1321.362,1463.094L1463.094,1321.362L1466.04,1324.308L1321.362,1468.986L1321.362,1463.094ZM1371.552,1513.284L1368.606,1510.338L1557.582,1321.362L1560.528,1324.308L1371.552,1513.284Z"/>
            </g>
            <g id="right-fragments-2" transform="matrix(1,0,0,1,-1085.141034,848.920562)">
                <path class="selector-decor-fragments" d="M1606.299,1325.781L1418.796,1513.284L1415.85,1510.338L1604.826,1321.362L1606.299,1322.835L1606.299,1325.781ZM1606.299,1467.513L1560.528,1513.284L1557.582,1510.338L1606.299,1461.621L1606.299,1467.513ZM1606.299,1420.269L1513.284,1513.284L1510.338,1510.338L1606.299,1414.377L1606.299,1420.269ZM1606.299,1373.025L1466.04,1513.284L1463.094,1510.338L1606.299,1367.132L1606.299,1373.025ZM1321.362,1510.338L1510.338,1321.362L1513.284,1324.308L1324.308,1513.284L1321.362,1510.338ZM1321.362,1368.606L1368.606,1321.362L1371.552,1324.308L1321.362,1374.498L1321.362,1368.606ZM1321.362,1415.85L1415.85,1321.362L1418.796,1324.308L1321.362,1421.742L1321.362,1415.85ZM1321.362,1463.094L1463.094,1321.362L1466.04,1324.308L1321.362,1468.986L1321.362,1463.094ZM1371.552,1513.284L1368.606,1510.338L1557.582,1321.362L1560.528,1324.308L1371.552,1513.284Z"/>
            </g>
            <g id="holes-right" transform="matrix(1,0,0,1,0,708.661417)">
                <path class="selector-decor-holes" d="M271.654,1511.811C278.172,1511.811 283.465,1517.103 283.465,1523.622C283.465,1530.141 278.172,1535.433 271.654,1535.433C265.135,1535.433 259.843,1530.141 259.843,1523.622C259.843,1517.103 265.135,1511.811 271.654,1511.811ZM484.252,1511.811C490.771,1511.811 496.063,1517.103 496.063,1523.622C496.063,1530.141 490.771,1535.433 484.252,1535.433C477.733,1535.433 472.441,1530.141 472.441,1523.622C472.441,1517.103 477.733,1511.811 484.252,1511.811ZM720.472,1511.811C726.991,1511.811 732.283,1517.103 732.283,1523.622C732.283,1530.141 726.991,1535.433 720.472,1535.433C713.954,1535.433 708.661,1530.141 708.661,1523.622C708.661,1517.103 713.954,1511.811 720.472,1511.811ZM956.693,1511.811C963.212,1511.811 968.504,1517.103 968.504,1523.622C968.504,1530.141 963.212,1535.433 956.693,1535.433C950.174,1535.433 944.882,1530.141 944.882,1523.622C944.882,1517.103 950.174,1511.811 956.693,1511.811Z"/>
            </g>
        </g>
    </g>
</svg>
