<?xml version="1.0" encoding="UTF-8" standalone="no"?>
<!DOCTYPE svg PUBLIC "-//W3C//DTD SVG 1.1//EN" "http://www.w3.org/Graphics/SVG/1.1/DTD/svg11.dtd">
<svg width="100%" height="100%" viewBox="0 0 2689 769" version="1.1" xmlns="http://www.w3.org/2000/svg" xmlns:xlink="http://www.w3.org/1999/xlink" xml:space="preserve" xmlns:serif="http://www.serif.com/" style="fill-rule:evenodd;clip-rule:evenodd;stroke-linejoin:round;stroke-miterlimit:2;">
    <g transform="matrix(1,0,0,1,-314.885827,-856.055118)">
        <g id="slanted-hero" class="slanted-hero" transform="matrix(0.433162,0,0,1.732649,-588.891861,-1100.651321)">
            <path d="M8293.646,1572.685L2086.465,1572.685L2086.465,1351L2529.835,1129.315L2751.52,1129.315L2308.15,1351L2529.835,1351L2973.205,1129.315L3194.89,1129.315L2751.52,1351L2973.205,1351L3416.575,1129.315L3638.26,1129.315L3194.89,1351L3416.575,1351L3859.945,1129.315L4081.63,1129.315L3638.26,1351L3859.945,1351L4303.315,1129.315L4525,1129.315L4081.63,1351L4303.315,1351L4746.685,1129.315L4968.37,1129.315L4525,1351L4746.685,1351L5190.055,1129.315L5411.74,1129.315L4968.37,1351L5190.055,1351L5633.425,1129.315L5855.11,1129.315L5411.74,1351L5633.425,1351L6076.795,1129.315L6298.48,1129.315L5855.11,1351L6076.795,1351L6520.165,1129.315L6741.85,1129.315L6298.48,1351L6520.165,1351L6963.535,1129.315L7185.22,1129.315L6741.85,1351L6963.535,1351L7406.906,1129.315L7628.591,1129.315L7185.22,1351L7406.906,1351L7850.276,1129.315L8071.961,1129.315L7628.591,1351L7850.276,1351L8293.646,1129.315L8293.646,1240.157L8071.961,1351L8293.646,1351L8293.646,1572.685ZM2086.465,1129.315L2308.15,1129.315L2086.465,1240.157L2086.465,1129.315Z"/>
            <clipPath id="_clip1">
                <path d="M8293.646,1572.685L2086.465,1572.685L2086.465,1351L2529.835,1129.315L2751.52,1129.315L2308.15,1351L2529.835,1351L2973.205,1129.315L3194.89,1129.315L2751.52,1351L2973.205,1351L3416.575,1129.315L3638.26,1129.315L3194.89,1351L3416.575,1351L3859.945,1129.315L4081.63,1129.315L3638.26,1351L3859.945,1351L4303.315,1129.315L4525,1129.315L4081.63,1351L4303.315,1351L4746.685,1129.315L4968.37,1129.315L4525,1351L4746.685,1351L5190.055,1129.315L5411.74,1129.315L4968.37,1351L5190.055,1351L5633.425,1129.315L5855.11,1129.315L5411.74,1351L5633.425,1351L6076.795,1129.315L6298.48,1129.315L5855.11,1351L6076.795,1351L6520.165,1129.315L6741.85,1129.315L6298.48,1351L6520.165,1351L6963.535,1129.315L7185.22,1129.315L6741.85,1351L6963.535,1351L7406.906,1129.315L7628.591,1129.315L7185.22,1351L7406.906,1351L7850.276,1129.315L8071.961,1129.315L7628.591,1351L7850.276,1351L8293.646,1129.315L8293.646,1240.157L8071.961,1351L8293.646,1351L8293.646,1572.685ZM2086.465,1129.315L2308.15,1129.315L2086.465,1240.157L2086.465,1129.315Z"/>
            </clipPath>
            <g clip-path="url(#_clip1)">
                <g id="text" transform="matrix(19.263722,0,0,4.815931,-26139.824371,-6995.495465)">
                    <g transform="matrix(50,0,0,50,1794.970388,1769.074318)">
                    </g>
                    <text x="1464.917px" y="1775px">Hero Index:</text>
                </g>
            </g>
        </g>
    </g>
</svg>
