<?xml version="1.0" encoding="UTF-8" standalone="no"?>
<!DOCTYPE svg PUBLIC "-//W3C//DTD SVG 1.1//EN" "http://www.w3.org/Graphics/SVG/1.1/DTD/svg11.dtd">
<svg width="100%" height="100%" viewBox="0 0 385 769" version="1.1" xmlns="http://www.w3.org/2000/svg" xmlns:xlink="http://www.w3.org/1999/xlink" xml:space="preserve" xmlns:serif="http://www.serif.com/" style="fill-rule:evenodd;clip-rule:evenodd;stroke-linejoin:round;stroke-miterlimit:2;">
    <g transform="matrix(1,0,0,1,-1467.192913,-856.055118)">
        <g id="slanted-hero-index" class="slanted-hero" transform="matrix(0.433162,0,0,1.732649,563.415226,-1100.651321)">
            <path d="M2086.465,1351L2529.835,1129.315L2751.52,1129.315L2308.15,1351L2529.835,1351L2973.205,1129.315L2973.205,1240.157L2751.52,1351L2973.205,1351L2973.205,1572.685L2086.465,1572.685L2086.465,1351ZM2086.465,1129.315L2308.15,1129.315L2086.465,1240.157L2086.465,1129.315Z"/>
            <clipPath id="_clip1">
                <path d="M2086.465,1351L2529.835,1129.315L2751.52,1129.315L2308.15,1351L2529.835,1351L2973.205,1129.315L2973.205,1240.157L2751.52,1351L2973.205,1351L2973.205,1572.685L2086.465,1572.685L2086.465,1351ZM2086.465,1129.315L2308.15,1129.315L2086.465,1240.157L2086.465,1129.315Z"/>
            </clipPath>
            <g clip-path="url(#_clip1)">
                <g id="character" transform="matrix(19.263722,0,0,4.815931,-28865.887644,-6996.714006)">
                    <g transform="matrix(50,0,0,50,1644.945974,1769.074318)">
                    </g>
                    <text id="slanted-hero-index-value" class="slanted-hero__index" x="1614.941px" y="1775px">?</text> <!-- dynamically changed in JavaScript -->
                </g>
            </g>
        </g>
    </g>
</svg>
